# xmcd
#
# Track frame offsets:
#	150
#	14047
#	29777
#	42105
#	55315
#	67112
#	90627
#	104405
#	119072
#	132137
#	142275
#
# Disc length: 2013 seconds
# Revision: 0
# Processed by: cddbd v1.5.2PL0 Copyright (c) Steve Scherf et al.
# Submitted via: dBpowerAMP V12.0
#
DISCID=ae07db0b
DTITLE=The Wintons - Blesse Assurance
DYEAR=2011
DGENRE=Gospel
TTITLE0=Lazarus
TTITLE1=God's Blessing
TTITLE2=He'll Make A Way
TTITLE3=Clinch Mountain Backstep
TTITLE4=Be Assured
TTITLE5=Anna's Song
TTITLE6=I Am the Man Thomas
TTITLE7=You're God
TTITLE8=Go On In Jesus' Name
TTITLE9=That'd Be Fine
TTITLE10=Some Day
EXTD=
EXTT0=
EXTT1=
EXTT2=
EXTT3=
EXTT4=
EXTT5=
EXTT6=
EXTT7=
EXTT8=
EXTT9=
EXTT10=
PLAYORDER=
